<?xml version="1.0" encoding="UTF-8"?>
<svg width="51px" height="50px" viewBox="0 0 51 50" version="1.1" xmlns="http://www.w3.org/2000/svg" xmlns:xlink="http://www.w3.org/1999/xlink">
    <title>Group 18</title>
    <defs>
        <filter id="filter-1">
            <feColorMatrix in="SourceGraphic" type="matrix" values="0 0 0 0 1.000000 0 0 0 0 1.000000 0 0 0 0 1.000000 0 0 0 1.000000 0"></feColorMatrix>
        </filter>
    </defs>
    <g id="New-Filter" stroke="none" stroke-width="1" fill="none" fill-rule="evenodd">
        <g id="Group-21" transform="translate(-194.000000, 0.000000)">
            <g id="Group-18" transform="translate(194.700000, 0.000000)">
                <circle id="Oval-Copy-4" fill="#168A8A" cx="24.78" cy="24.78" r="24.78"></circle>
                <g filter="url(#filter-1)" id="noun_Hearing-Loop_28161">
                    <g transform="translate(16.520000, 13.570000)">
                        <path d="M13.6939,1.1682 L2.0119,21.43647 L0.02596,20.26827 L8.49541,5.54895 C8.26177,5.49054 8.02813,5.49054 7.79449,5.49054 C6.74311,5.49054 5.80855,5.89941 5.10763,6.60033 C4.81558,6.83397 4.64035,7.12602 4.46512,7.47648 L3.47215,6.95079 C3.70579,6.54192 3.93943,6.13305 4.28989,5.78259 C5.16604,4.90644 6.39265,4.38075 7.79449,4.38075 C8.26177,4.38075 8.67064,4.43916 9.07951,4.55598 L9.72202,3.5046 C9.07951,3.27096 8.437,3.15414 7.79449,3.15414 C6.1006,3.15414 4.58194,3.85506 3.47215,4.96485 C2.47918,5.95782 1.89508,7.24284 1.71985,8.58627 L0.02596,7.53489 C0.37642,6.07464 1.13575,4.73121 2.18713,3.67983 C3.58897,2.27799 5.57491,1.34343 7.79449,1.34343 C8.78746,1.34343 9.72202,1.57707 10.59817,1.86912 L11.70796,0 L13.6939,1.1682 Z M11.88319,6.60033 C12.40888,7.35966 12.70093,8.29422 12.70093,9.28719 C12.70093,10.63062 12.11683,11.85723 11.24068,12.73338 L10.48135,11.97405 C11.12386,11.27313 11.59114,10.33857 11.59114,9.28719 C11.59114,8.70309 11.47432,8.23581 11.24068,7.71012 L11.88319,6.60033 Z M13.51867,3.79665 C14.8621,5.2569 15.67984,7.18443 15.67984,9.28719 C15.67984,10.80585 15.21256,12.2661 14.45323,13.49271 C12.46729,16.70526 13.6939,22.1958 7.8529,22.1958 C6.39265,22.1958 5.04922,21.6117 4.05625,20.61873 C3.99784,20.56032 3.93943,20.50191 3.88102,20.4435 L4.87399,18.74961 C4.99081,18.98325 5.16604,19.15848 5.34127,19.33371 C5.98378,19.97622 6.85993,20.38509 7.8529,20.38509 C11.82478,20.38509 10.94863,15.71229 12.93457,12.55815 C13.51867,11.56518 13.86913,10.45539 13.86913,9.28719 C13.86913,7.82694 13.40185,6.54192 12.5257,5.49054 L13.51867,3.79665 Z" id="Shape" fill="#000000" fill-rule="nonzero"></path>
                    </g>
                </g>
            </g>
        </g>
    </g>
</svg>